<?xml version="1.0" standalone="no"?>
<!DOCTYPE svg PUBLIC "-//W3C//DTD SVG 20010904//EN"
 "http://www.w3.org/TR/2001/REC-SVG-20010904/DTD/svg10.dtd">
<svg version="1.0" xmlns="http://www.w3.org/2000/svg"
 width="300.000000pt" height="300.000000pt" viewBox="0 0 300.000000 300.000000"
 preserveAspectRatio="xMidYMid meet">
<metadata>
Created by potrace 1.14, written by Peter Selinger 2001-2017
</metadata>
<g transform="translate(0.000000,300.000000) scale(0.100000,-0.100000)"
fill="#000000" stroke="none">
<path d="M1455 2964 c-92 -76 -201 -115 -357 -129 -236 -20 -304 -32 -369 -65
-78 -40 -151 -145 -164 -235 -10 -66 -13 -71 -73 -95 -144 -60 -217 -132 -253
-253 -19 -65 -47 -206 -64 -326 -3 -23 -10 -54 -15 -67 -5 -13 -7 -24 -5 -24
16 0 -65 -123 -105 -161 l-49 -45 30 -35 c42 -49 95 -154 113 -224 8 -33 29
-141 46 -240 37 -212 60 -264 160 -366 60 -61 118 -97 181 -112 25 -6 36 -22
171 -236 20 -33 44 -82 52 -110 16 -54 16 -55 16 -71 0 -13 40 12 102 62 l46
38 51 -31 c58 -36 117 -116 127 -171 4 -27 11 -38 24 -38 24 0 116 62 150 101
l26 31 49 -37 c27 -21 67 -58 89 -82 l41 -45 33 42 c37 45 127 120 145 120 7
0 36 -23 65 -50 61 -57 112 -88 113 -68 3 53 44 124 101 173 73 63 82 65 131
18 48 -46 86 -73 103 -73 6 0 18 26 27 59 12 43 37 86 95 163 43 57 84 118 91
136 11 26 22 34 70 47 125 36 248 148 285 259 19 56 41 157 50 229 3 26 9 68
12 95 11 82 43 194 70 239 26 45 72 95 114 126 l25 17 -23 17 c-61 43 -129
129 -153 190 -9 25 -41 192 -55 293 -31 229 -128 357 -299 395 -42 10 -49 15
-50 36 -3 82 -42 189 -88 239 -59 65 -167 95 -477 134 -139 18 -237 56 -309
121 -45 41 -56 42 -96 9z m76 -70 c72 -54 177 -95 279 -109 30 -4 64 -9 75
-11 10 -2 49 -6 85 -10 91 -8 203 -32 253 -53 84 -37 130 -102 141 -202 l7
-57 -48 -23 c-37 -19 -51 -32 -59 -59 -10 -30 -9 -39 7 -61 36 -52 83 -43 130
25 28 39 35 43 62 39 141 -22 236 -155 262 -368 3 -27 10 -75 15 -105 5 -30
12 -71 15 -90 14 -89 58 -181 113 -240 l39 -40 -31 -33 c-63 -65 -108 -165
-121 -269 -4 -29 -8 -55 -10 -58 -2 -3 -6 -30 -9 -60 -4 -30 -8 -66 -10 -80
-3 -14 -7 -43 -11 -65 -23 -157 -96 -263 -220 -319 -69 -32 -81 -32 -89 -1 -9
37 -70 79 -102 71 -38 -10 -74 -50 -74 -84 0 -34 42 -82 71 -82 39 0 31 -15
-114 -203 -20 -27 -40 -59 -43 -73 -8 -31 -14 -30 -49 6 l-29 30 21 28 c67 91
45 196 -42 196 -68 0 -98 -63 -76 -158 11 -48 11 -52 -11 -69 -71 -57 -138
-124 -149 -149 -14 -34 -18 -34 -53 -7 -46 36 -48 51 -15 100 33 50 36 77 14
119 -26 50 -84 54 -119 7 -17 -23 -21 -43 -21 -98 l0 -70 -45 -33 c-25 -18
-56 -45 -69 -60 -14 -14 -28 -26 -33 -26 -5 0 -26 15 -46 34 -20 19 -49 45
-65 58 -25 22 -27 28 -21 70 8 56 1 87 -25 117 -46 53 -131 24 -131 -45 0 -40
12 -68 46 -105 l24 -25 -27 -31 c-16 -16 -39 -37 -53 -46 -25 -16 -25 -15 -44
24 -11 22 -53 74 -93 115 -66 68 -72 77 -61 97 6 12 12 48 12 80 1 53 -2 61
-27 83 -84 72 -159 -45 -106 -165 l19 -44 -22 -24 c-12 -13 -25 -23 -30 -23
-4 0 -19 24 -32 53 -13 28 -49 86 -80 127 -32 41 -64 87 -72 102 -13 25 -13
27 15 33 39 8 73 46 69 77 -6 43 -36 78 -66 78 -52 0 -71 -12 -89 -51 -9 -21
-22 -39 -27 -39 -28 0 -115 52 -153 90 -61 62 -128 203 -138 290 -2 15 -11 81
-21 150 -3 19 -7 42 -9 50 -2 8 -7 35 -10 59 -12 87 -54 183 -104 240 -27 30
-27 30 8 67 63 67 83 126 125 359 29 161 41 203 73 271 42 90 124 157 214 178
21 4 29 0 40 -20 19 -37 67 -74 93 -74 34 0 66 33 66 68 0 39 -26 69 -75 84
-33 11 -40 17 -39 38 6 104 79 207 178 251 23 10 70 20 106 24 123 11 175 16
210 20 19 2 64 7 100 10 74 8 190 52 247 95 21 16 41 29 44 29 3 1 21 -11 40
-25z m-869 -508 c11 -16 10 -23 -7 -30 -17 -6 -57 32 -49 46 7 11 46 0 56 -16z
m1698 -10 c0 -16 -14 -36 -26 -36 -14 0 -19 22 -7 33 7 8 33 10 33 3z m-1703
-1723 c0 -19 -14 -33 -34 -33 -14 0 -18 32 -6 43 13 14 40 7 40 -10z m1690
-37 c-7 -17 -36 -12 -49 8 -12 17 -9 24 10 29 23 5 46 -17 39 -37z m-1423
-189 c-1 -21 -4 -41 -8 -45 -11 -11 -26 20 -26 56 0 27 4 33 18 30 13 -3 17
-13 16 -41z m1136 4 c0 -15 -7 -36 -15 -47 -14 -19 -14 -19 -16 1 -1 11 -3 27
-4 35 -2 22 15 51 26 45 5 -4 9 -19 9 -34z m-778 -119 c2 -9 2 -28 -2 -41 l-6
-25 -22 28 c-25 32 -28 52 -9 59 18 6 35 -2 39 -21z m428 4 c0 -14 -8 -32 -17
-42 -17 -17 -18 -17 -21 10 -4 36 4 56 23 56 9 0 15 -9 15 -24z"/>
<path d="M1776 2594 c-9 -23 -7 -36 4 -29 6 3 7 -1 4 -9 -3 -9 -9 -14 -13 -12
-3 2 -7 -10 -7 -27 -1 -18 -4 -39 -6 -47 -3 -8 -9 -28 -13 -45 -4 -16 -16 -49
-26 -73 l-19 -43 33 -14 c43 -19 63 -5 93 67 28 67 21 111 -15 101 -12 -3 -21
-10 -21 -16 0 -6 -3 -8 -6 -5 -3 4 2 27 10 53 9 26 19 62 22 81 4 29 2 34 -14
34 -11 0 -23 -7 -26 -16z m13 -233 c-12 -28 -26 -51 -30 -51 -5 0 -3 10 5 23
7 12 20 40 27 62 7 22 14 35 16 28 2 -6 -6 -34 -18 -62z"/>
<path d="M1725 2455 c-30 -83 -41 -93 -25 -22 11 53 5 77 -20 77 -24 0 -40
-22 -47 -64 -3 -20 -9 -36 -13 -36 -4 0 -3 21 2 46 8 37 7 48 -3 55 -30 19
-49 1 -58 -57 l-9 -49 -1 58 c-1 51 -3 57 -22 57 -15 0 -19 -5 -15 -17 3 -10
6 -47 7 -83 2 -75 6 -90 24 -90 12 0 23 44 31 114 1 16 7 33 13 39 7 7 9 -8 5
-49 -9 -103 -6 -116 24 -98 9 6 24 40 34 75 9 35 16 57 17 49 1 -9 -6 -42 -14
-74 -17 -64 -14 -76 12 -55 11 9 14 10 9 2 -4 -7 -3 -13 1 -13 5 0 13 8 20 19
13 21 64 183 59 188 -2 2 -16 -31 -31 -72z"/>
<path d="M1377 2502 c-12 -13 -17 -36 -16 -73 0 -50 16 -116 19 -79 0 12 3 12
14 -2 15 -21 41 -23 52 -6 4 6 9 37 10 67 3 71 5 75 14 27 4 -22 4 -53 -1 -69
-9 -34 -2 -54 13 -39 13 13 23 132 14 166 -4 17 -13 26 -26 26 -27 0 -32 -13
-32 -91 0 -38 -4 -72 -9 -75 -5 -3 -10 3 -10 13 -5 67 -3 92 8 121 11 30 11
32 -11 32 -13 0 -30 -8 -39 -18z m11 -109 c1 -24 0 -25 -9 -10 -5 9 -7 22 -4
27 9 15 10 13 13 -17z"/>
<path d="M1225 2489 c-4 -6 -4 -27 -1 -47 4 -26 3 -31 -3 -17 -12 28 -38 48
-45 37 -3 -6 4 -34 15 -63 12 -30 25 -64 30 -76 5 -13 13 -23 19 -23 23 0 26
44 9 106 -18 64 -14 96 6 48 9 -22 12 -24 22 -12 10 11 9 19 -3 36 -16 24 -39
29 -49 11z"/>
<path d="M833 2452 c-10 -6 -8 -17 8 -47 35 -67 81 -136 87 -131 3 3 -17 38
-43 78 -27 40 -40 66 -31 59 20 -16 106 -135 106 -145 0 -4 9 -16 20 -28 11
-12 20 -28 20 -35 0 -13 29 -19 31 -5 0 4 2 15 4 24 2 10 -7 33 -18 50 -30 45
-48 88 -38 88 9 0 55 -71 81 -125 l14 -30 4 28 c5 40 -64 157 -93 157 -30 0
-34 -7 -24 -43 l8 -32 -22 30 c-86 116 -92 121 -114 107z"/>
<path d="M1105 2450 c-3 -5 4 -35 15 -67 35 -96 32 -112 -6 -35 -30 61 -39 73
-57 70 -30 -4 -26 -29 18 -108 25 -45 34 -56 30 -35 -6 30 -6 30 10 8 9 -13
23 -23 31 -23 8 0 19 10 24 23 8 20 9 20 10 2 1 -19 1 -19 14 -2 11 15 10 27
-11 84 -13 37 -29 73 -35 80 -12 15 -34 17 -43 3z m40 -70 c17 -33 19 -44 6
-36 -10 6 -33 66 -26 66 3 0 11 -13 20 -30z m-65 -30 c11 -22 19 -40 16 -40
-4 0 -46 68 -46 76 0 13 12 -1 30 -36z"/>
<path d="M1892 2422 c-15 -2 -22 -9 -18 -17 3 -8 -8 -38 -24 -67 -52 -97 -8
-140 49 -48 17 28 31 54 31 59 0 5 7 14 15 21 8 7 15 10 15 7 0 -9 -37 -73
-66 -116 -13 -20 -20 -37 -15 -39 21 -7 49 20 80 77 26 49 30 64 21 81 -16 30
-25 25 -60 -29 -26 -41 -77 -98 -58 -66 3 6 15 31 27 56 11 26 27 49 36 53 35
13 9 35 -33 28z"/>
<path d="M1846 2384 c-4 -10 -1 -14 6 -12 15 5 23 28 10 28 -5 0 -13 -7 -16
-16z"/>
<path d="M2006 2347 c-3 -14 -22 -47 -41 -75 -40 -59 -43 -72 -15 -72 12 0 35
21 61 56 22 30 43 53 46 50 7 -7 -32 -62 -76 -108 -31 -34 -33 -38 -14 -38 22
0 79 52 89 82 3 10 9 18 14 18 12 0 22 34 14 54 -8 21 -23 20 -46 -1 -18 -16
-19 -16 -9 9 7 20 7 29 -3 37 -11 9 -15 6 -20 -12z"/>
<path d="M844 2295 c-9 -21 5 -53 15 -37 5 9 24 -7 59 -49 44 -51 52 -57 52
-37 0 33 -85 137 -113 138 -4 0 -10 -7 -13 -15z"/>
<path d="M634 2263 c-15 -16 -12 -20 43 -72 134 -125 153 -142 153 -134 0 4
-41 46 -90 92 -50 46 -90 88 -90 95 0 7 3 7 8 1 4 -6 51 -48 105 -94 53 -46
97 -88 97 -93 0 -5 4 -7 9 -4 5 3 7 15 4 25 -6 25 -126 140 -180 174 -39 25
-43 25 -59 10z"/>
<path d="M2083 2257 c-18 -20 -17 -20 2 -13 14 5 9 -4 -16 -31 -48 -50 -60
-74 -48 -96 15 -25 25 -22 82 30 67 61 31 17 -48 -59 -33 -32 -66 -59 -72 -59
-7 -1 -19 -2 -25 -3 -7 -1 -23 1 -35 5 -29 11 -21 -14 10 -29 41 -21 107 -15
107 10 0 5 -7 7 -16 4 -9 -3 -12 -2 -9 5 4 5 15 7 24 4 11 -3 25 3 37 17 18
20 18 21 1 15 -11 -4 -16 -3 -12 3 4 6 14 9 22 8 9 -2 18 3 21 11 3 10 0 11
-9 5 -8 -4 12 17 44 49 55 54 69 85 41 94 -7 2 -39 -19 -72 -47 -66 -54 -78
-60 -63 -32 15 29 64 74 93 86 32 14 25 33 -14 40 -18 3 -32 -2 -45 -17z"/>
<path d="M930 2260 c0 -5 4 -10 9 -10 5 0 13 -9 16 -21 4 -11 9 -18 11 -16 7
7 -18 57 -28 57 -4 0 -8 -4 -8 -10z"/>
<path d="M797 2239 c-9 -6 -17 -15 -17 -22 0 -14 101 -120 108 -112 3 2 -6 13
-19 24 -13 11 -21 22 -17 26 4 4 14 0 23 -9 30 -30 57 -40 66 -25 5 8 6 23 2
34 -7 23 -64 95 -75 95 -15 0 -8 -13 28 -57 53 -64 35 -64 -28 0 -43 44 -57
53 -71 46z m31 -48 c12 -10 22 -21 22 -25 0 -12 -37 13 -44 29 -7 20 -4 19 22
-4z"/>
<path d="M1473 2183 c-24 -5 -63 -47 -63 -69 0 -7 -10 -19 -22 -25 -41 -21
-68 -52 -74 -85 -3 -19 -14 -36 -23 -39 -45 -14 -95 -100 -86 -147 3 -13 -7
-39 -25 -66 -25 -37 -30 -56 -30 -103 0 -52 -3 -60 -29 -79 -35 -24 -45 -50
-43 -107 4 -94 52 -185 110 -206 l35 -12 -6 -75 c-7 -89 -10 -102 -32 -158
-26 -65 -107 -118 -210 -137 -23 -5 -163 -14 -230 -15 -5 0 1 -10 13 -22 19
-20 34 -23 100 -24 42 -1 83 -2 90 -3 9 -1 2 -15 -17 -38 -17 -21 -31 -43 -31
-49 0 -15 53 -55 115 -86 54 -28 225 -90 225 -83 0 2 11 0 24 -5 41 -15 136
-24 256 -23 89 1 137 7 212 26 110 29 230 85 285 132 l37 32 -26 41 c-15 22
-25 42 -22 44 2 3 24 2 49 -2 54 -8 92 -5 123 11 38 21 20 31 -58 35 -162 6
-278 49 -326 121 -33 49 -62 236 -40 254 6 5 26 21 44 35 43 35 69 88 84 171
14 83 6 118 -30 141 -25 15 -28 22 -24 61 5 56 -3 83 -32 118 -16 20 -23 38
-21 60 3 43 -35 122 -73 151 -17 13 -33 35 -37 50 -7 34 -20 50 -67 85 -21 15
-38 33 -38 40 -1 34 -44 58 -87 50z m35 -59 c12 -8 22 -25 22 -37 0 -16 6 -23
23 -24 29 -3 65 -45 73 -87 4 -26 16 -41 49 -62 48 -30 55 -45 55 -121 0 -41
4 -54 19 -62 42 -23 45 -101 5 -179 -9 -18 -14 -35 -12 -37 2 -3 21 1 41 7 49
15 62 2 60 -62 -2 -74 -66 -183 -102 -173 -13 3 -27 -12 -54 -55 -62 -101
-138 -162 -199 -162 -70 1 -170 85 -210 176 -20 46 -27 54 -50 54 -31 0 -59
24 -83 70 -22 42 -30 113 -16 139 13 23 50 28 69 9 21 -21 26 1 9 37 -9 20
-17 52 -17 72 0 38 35 123 51 123 5 0 8 22 8 49 -2 58 19 97 67 130 19 13 34
30 34 38 0 30 32 74 64 87 24 10 37 24 46 50 13 41 17 42 48 20z m-104 -1084
c80 -38 166 -17 247 62 22 22 43 38 45 35 3 -2 7 -22 10 -43 18 -144 73 -222
181 -259 35 -12 103 -81 103 -105 0 -13 -77 -57 -151 -85 -91 -36 -218 -60
-363 -69 -55 -4 -224 22 -295 45 -55 18 -211 102 -211 114 0 26 65 85 132 120
40 21 79 46 86 54 27 34 52 92 58 133 3 24 7 53 9 65 6 43 16 42 61 -2 26 -24
65 -53 88 -65z"/>
<path d="M1426 1688 c-52 -104 -58 -123 -53 -161 8 -58 52 -97 108 -97 33 0
47 6 75 34 19 19 34 45 35 57 2 49 -3 94 -12 105 -5 6 -28 49 -52 95 l-42 85
-59 -118z m92 -52 c34 -64 39 -116 12 -143 -60 -64 -146 17 -104 99 22 43 54
88 62 88 4 0 18 -20 30 -44z"/>
<path d="M2178 2139 c-24 -23 -28 -29 -13 -25 14 5 8 -4 -16 -26 -20 -18 -38
-41 -42 -50 -7 -21 17 -42 40 -34 17 6 17 5 1 -8 -23 -17 -23 -26 0 -26 21 0
129 67 151 93 11 14 11 20 1 32 -17 21 -39 15 -97 -28 -53 -38 -94 -52 -52
-17 13 11 41 34 62 51 41 34 50 69 17 69 -11 0 -34 -14 -52 -31z"/>
<path d="M557 2094 c-12 -12 -8 -41 8 -54 9 -7 18 -10 22 -6 4 3 -2 12 -12 20
-13 9 -15 15 -6 20 6 4 19 2 28 -5 13 -11 15 -11 12 6 -4 20 -38 32 -52 19z"/>
<path d="M623 2044 c-10 -25 9 -46 72 -81 60 -35 101 -46 50 -14 -16 10 -50
31 -75 47 -25 15 -40 29 -33 31 17 6 98 -35 127 -63 16 -16 27 -21 31 -14 10
16 -22 47 -80 81 -57 33 -83 36 -92 13z"/>
<path d="M2310 2050 c0 -5 -29 -28 -64 -50 -65 -41 -85 -65 -67 -83 12 -12 45
-1 36 12 -3 5 0 13 6 17 8 4 9 3 5 -4 -11 -19 11 -14 65 14 48 24 68 26 56 7
-6 -9 -75 -45 -119 -62 -16 -6 -28 -15 -28 -21 0 -18 40 -10 101 20 56 29 82
59 72 85 -5 15 -42 16 -67 3 -16 -7 -14 -3 7 17 22 21 26 30 16 41 -14 16 -19
18 -19 4z m-40 -74 c0 -2 -8 -10 -17 -17 -16 -13 -17 -12 -4 4 13 16 21 21 21
13z"/>
<path d="M597 1973 c-4 -3 -7 -17 -7 -30 0 -22 -1 -23 -27 -9 -80 41 -162 40
-121 -1 22 -21 268 -134 268 -122 0 10 -95 56 -218 104 -24 10 -41 19 -39 22
6 5 107 -32 195 -73 80 -37 92 -40 92 -23 0 15 -56 69 -72 69 -17 1 -67 39
-50 40 7 0 42 -18 77 -39 36 -22 65 -37 65 -33 0 20 -37 55 -80 77 -50 26 -72
30 -83 18z"/>
<path d="M430 1872 c-17 -6 -30 -22 -30 -38 0 -6 24 -18 54 -27 30 -10 56 -24
59 -31 4 -9 14 -12 27 -9 22 6 97 -13 115 -29 13 -11 28 -10 20 1 -3 6 -58 27
-123 47 -134 42 -170 62 -61 33 41 -10 86 -21 100 -24 14 -3 42 -12 62 -20 50
-21 64 -19 43 4 -9 10 -41 26 -71 35 -29 10 -56 24 -59 32 -4 9 -14 12 -28 9
-13 -3 -39 0 -58 8 -19 8 -42 12 -50 9z"/>
<path d="M2413 1806 c-6 -8 -39 -22 -73 -32 -73 -22 -93 -40 -66 -60 11 -7 22
-11 26 -9 8 5 54 15 101 22 41 5 60 -11 30 -26 -18 -10 -128 -27 -143 -23 -5
1 -8 -5 -8 -13 0 -12 12 -15 53 -14 78 0 121 18 125 51 3 29 -21 43 -68 40
-22 -2 -21 -1 8 12 34 16 51 42 36 56 -5 5 -14 3 -21 -4z"/>
<path d="M513 1733 c-7 -2 -13 -18 -13 -34 0 -30 30 -53 84 -63 47 -8 64 -16
70 -33 10 -25 -14 -33 -51 -18 -23 10 -41 11 -58 5 -18 -7 -28 -5 -40 6 -20
20 -33 10 -28 -20 3 -16 16 -30 34 -38 35 -16 37 -24 5 -32 -31 -8 -40 -33
-17 -46 10 -5 48 -8 85 -6 36 2 66 -1 66 -5 0 -9 -18 -11 -107 -10 -40 0 -53
-4 -53 -15 0 -19 38 -56 50 -49 6 4 10 1 10 -4 0 -6 -7 -11 -15 -11 -8 0 -20
-10 -26 -22 -9 -17 -8 -24 5 -34 9 -6 27 -10 39 -8 l22 5 -22 -10 c-13 -6 -23
-19 -23 -31 0 -18 2 -19 23 -8 12 6 49 19 82 28 62 17 84 43 46 53 -28 7 -102
-13 -94 -26 4 -6 1 -7 -8 -1 -8 5 -22 7 -31 6 -30 -5 -20 15 13 27 17 6 53 13
80 17 27 4 49 10 49 15 0 5 -4 9 -10 9 -5 0 -7 7 -3 16 5 13 1 15 -18 10 l-24
-6 23 12 c15 7 22 19 20 32 -3 19 -10 21 -66 22 -34 1 -65 4 -68 7 -8 8 72 14
157 13 61 -1 81 -5 98 -20 24 -22 41 -14 25 11 -28 45 -63 58 -157 59 -141 2
-146 3 -124 15 11 6 30 8 45 3 46 -13 61 -12 78 7 36 40 -10 89 -82 89 -13 0
-24 4 -24 9 0 11 75 8 103 -4 26 -11 21 12 -8 31 -18 12 -38 15 -68 11 -42 -6
-78 5 -64 19 3 4 13 2 20 -4 15 -13 27 -6 27 15 0 13 -32 16 -57 6z m77 -339
c0 -2 -12 -4 -26 -4 -14 0 -23 4 -20 9 6 8 46 4 46 -5z m40 12 c0 -2 -7 -7
-16 -10 -8 -3 -12 -2 -9 4 6 10 25 14 25 6z"/>
<path d="M2409 1646 c-4 -3 -70 -15 -92 -16 -5 0 -6 -4 -2 -10 3 -5 12 -7 20
-3 8 3 15 -1 15 -8 0 -7 -3 -10 -6 -6 -10 10 -64 -15 -64 -30 0 -29 28 -42 96
-46 l69 -3 -79 -1 c-78 0 -111 -14 -66 -28 39 -12 153 -15 167 -3 35 29 -1 54
-83 56 -37 1 -72 6 -78 12 -11 11 -11 11 79 15 46 2 62 -1 71 -14 7 -9 16 -12
20 -8 13 13 14 40 2 55 -13 15 -64 43 -69 38z m17 -29 c4 -4 -10 -7 -32 -7
-24 0 -34 3 -26 8 15 10 48 9 58 -1z"/>
<path d="M2129 1503 c-12 -93 25 -139 144 -178 45 -15 84 -29 86 -31 3 -3 -20
-2 -51 2 -51 6 -56 5 -63 -15 -9 -31 7 -46 70 -66 30 -9 57 -21 60 -26 3 -4
-13 -1 -37 7 -24 9 -48 17 -55 18 -7 1 -16 5 -19 9 -4 4 -14 7 -22 7 -27 0 9
-31 67 -56 63 -28 94 -28 99 0 3 11 10 26 18 34 32 31 8 77 -56 106 l-35 16
40 -6 c74 -10 94 -3 95 33 0 12 -51 32 -97 37 -15 2 -31 4 -35 5 -5 0 -8 5 -8
10 0 12 78 2 114 -15 37 -18 36 -18 36 5 0 39 -32 62 -93 68 -48 4 -57 2 -57
-12 0 -9 -4 -14 -9 -11 -14 9 -42 -18 -36 -36 7 -17 34 -27 95 -35 19 -3 39
-9 45 -14 25 -24 -212 36 -244 62 -13 11 -29 36 -37 57 -7 20 -14 31 -15 25z
m256 -53 c3 -6 -1 -7 -9 -4 -18 7 -21 14 -7 14 6 0 13 -4 16 -10z m49 -9 c4
-5 -3 -7 -14 -4 -23 6 -26 13 -6 13 8 0 17 -4 20 -9z m-34 -161 c13 -8 13 -10
-2 -10 -9 0 -20 5 -23 10 -8 13 5 13 25 0z m-45 -31 c31 -12 55 -27 55 -35 0
-16 -16 -19 -25 -5 -3 5 -30 17 -60 25 -56 17 -81 36 -46 36 11 0 45 -9 76
-21z"/>
<path d="M620 1259 c-66 -23 -84 -40 -76 -67 7 -20 20 -23 44 -9 6 5 12 6 12
3 0 -3 12 -1 28 5 15 6 41 13 57 15 25 3 22 0 -20 -21 -27 -14 -62 -25 -77
-25 -37 0 -36 -17 4 -48 14 -11 27 -9 85 14 77 30 98 44 65 44 -20 0 -21 2
-10 21 11 17 10 22 -5 33 -10 8 -15 20 -11 30 3 9 2 16 -4 16 -6 0 -16 2 -24
4 -7 3 -38 -4 -68 -15z m70 -26 c-8 -3 -28 -11 -45 -18 -39 -17 -75 -25 -75
-17 0 9 89 40 115 40 14 0 15 -1 5 -5z m20 -67 c0 -10 -73 -46 -93 -46 -14 0
-1 10 33 24 30 13 56 24 58 25 1 0 2 -1 2 -3z"/>
<path d="M2210 1180 c-22 -14 -4 -36 64 -76 36 -21 66 -41 66 -45 0 -19 -20
-17 -34 2 -8 12 -19 18 -26 14 -17 -11 18 -45 47 -45 13 0 26 6 29 14 7 19
-13 56 -31 56 -7 0 -17 4 -20 10 -3 5 12 3 34 -5 33 -11 42 -11 51 0 14 16 12
17 -87 54 -48 17 -85 26 -93 21z"/>
<path d="M728 1135 c-82 -28 -127 -67 -114 -100 5 -14 13 -16 38 -11 29 6 30
5 16 -11 -19 -24 -17 -38 8 -62 12 -11 24 -26 26 -33 3 -8 27 6 70 39 87 70
94 79 67 86 -24 6 -82 -14 -93 -32 -4 -6 -22 -18 -39 -27 l-32 -17 19 22 c10
11 41 35 68 52 87 56 36 79 -62 28 -33 -17 -63 -29 -66 -26 -3 3 5 11 18 18
12 7 38 21 56 31 18 10 43 20 55 22 11 1 22 7 24 13 6 18 -21 21 -59 8z"/>
<path d="M2177 1087 c5 -9 30 -31 57 -47 27 -17 46 -33 43 -37 -3 -3 -22 7
-42 22 -41 32 -107 40 -112 15 -4 -17 34 -61 87 -102 19 -15 30 -27 25 -28 -6
0 -38 23 -73 50 -34 28 -62 49 -62 46 0 -33 98 -126 133 -126 29 0 33 31 6 52
-53 41 -99 90 -93 99 13 21 124 -64 124 -95 0 -25 23 -14 31 15 11 45 -20 82
-120 143 -10 7 -11 5 -4 -7z"/>
</g>
</svg>
